<?xml version="1.0" encoding="UTF-8" standalone="no"?>
<svg width="91px" height="75px" viewBox="0 0 91 75" version="1.1" xmlns="http://www.w3.org/2000/svg" xmlns:xlink="http://www.w3.org/1999/xlink" xmlns:sketch="http://www.bohemiancoding.com/sketch/ns">
    <title>Site_revised 1</title>
    <description>Created with Sketch (http://www.bohemiancoding.com/sketch)</description>
    <defs></defs>
    <g id="Page-1" stroke="none" stroke-width="1" fill="none" fill-rule="evenodd" sketch:type="MSPage">
        <g id="Small-Logo" sketch:type="MSLayerGroup" transform="translate(51.123165, 34.771977) rotate(-28.000000) translate(-51.123165, -34.771977) translate(20.123165, 5.410175)">
            <g id="Group" transform="translate(0.000000, -0.000000)" sketch:type="MSShapeGroup">
                <path d="M60.2478314,22.5741067 L50.3890953,25.7208004 M49.0198265,57.3245498 L42.8581164,48.978971 M12.4603469,57.3245498 L18.622057,48.978971 M1.09541512,22.5741067 L10.9541512,25.7208004" id="Shape" stroke-opacity="0.5" stroke="#313CA3" fill="#000000"></path>
                <path d="M30.6716233,1.09450214 L60.2478314,22.5723158 L48.9509029,57.3245498 L12.3923436,57.3245498 L1.09541512,22.5723158 L30.6716233,1.09450214 L30.6716233,11.4553138 L42.8576125,48.9420123 L10.9543483,25.7738562 L50.3888982,25.7738562 L18.485634,48.9420123 L30.6716233,11.4553138" id="Shape" stroke-opacity="0.5" stroke="#313CA3"></path>
                <g transform="translate(0.000000, 0.000000)" id="Oval" fill="#313CA3" fill-opacity="0.5">
                    <ellipse cx="30.6031598" cy="1.02609576" rx="1.02695167" ry="1.02609576"></ellipse>
                    <ellipse cx="30.6031598" cy="11.4238661" rx="1.02695167" ry="1.02609576"></ellipse>
                    <ellipse cx="60.179368" cy="22.5057004" rx="1.02695167" ry="1.02609576"></ellipse>
                    <ellipse cx="50.3206319" cy="25.652394" rx="1.02695167" ry="1.02609576"></ellipse>
                    <ellipse cx="48.8144361" cy="57.2561434" rx="1.02695167" ry="1.02609576"></ellipse>
                    <ellipse cx="42.789653" cy="48.9105646" rx="1.02695167" ry="1.02609576"></ellipse>
                    <ellipse cx="12.3918835" cy="57.2561434" rx="1.02695167" ry="1.02609576"></ellipse>
                    <ellipse cx="18.4166666" cy="48.9105646" rx="1.02695167" ry="1.02609576"></ellipse>
                    <ellipse cx="1.02695167" cy="22.5057004" rx="1.02695167" ry="1.02609576"></ellipse>
                    <ellipse cx="10.8856877" cy="25.652394" rx="1.02695167" ry="1.02609576"></ellipse>
                </g>
            </g>
        </g>
    </g>
</svg>